<svg width="224" height="213" viewBox="0 0 224 213" fill="none" xmlns="http://www.w3.org/2000/svg">
<path d="M137.974 191.756C136.878 189.842 134.832 189.256 132.819 190.018C130.355 190.951 129.235 193.485 130.388 196.53C131.541 199.576 134.048 200.737 136.522 199.801C138.614 199.009 139.648 197.118 139.246 195.117L137.794 195.662C138.009 196.973 137.239 198.03 136.035 198.486C134.403 199.104 132.697 198.319 131.816 195.99C130.941 193.679 131.688 191.945 133.329 191.324C134.543 190.864 135.82 191.162 136.523 192.305L137.974 191.756Z" fill="#04CEA7"/>
<path d="M150.13 187.084C148.52 184.254 145.85 183.501 143.559 184.804C141.26 186.112 140.547 188.788 142.156 191.619C143.764 194.445 146.432 195.204 148.731 193.897C151.021 192.594 151.74 189.915 150.13 187.084ZM148.807 187.836C150.034 189.993 149.559 191.813 148.038 192.678C146.512 193.546 144.71 193.021 143.483 190.864C142.257 188.708 142.727 186.89 144.253 186.023C145.774 185.158 147.581 185.68 148.807 187.836Z" fill="#04CEA7"/>
<path d="M156.538 175.641L155.348 176.588L160.006 182.438L159.932 182.497L151.221 179.874L150.109 180.76L156.451 188.725L157.653 187.768L153.002 181.926L153.076 181.868L161.776 184.486L162.88 183.606L156.538 175.641Z" fill="#04CEA7"/>
<path d="M159.837 174.225L161.994 171.9L168.489 177.925L169.53 176.803L163.035 170.777L165.196 168.448L164.227 167.549L158.867 173.326L159.837 174.225Z" fill="#04CEA7"/>
<path d="M175.418 169.535L173.727 167.238L175.98 163.961L178.728 164.722L179.651 163.378L169.186 160.628L168.18 162.091L174.494 170.879L175.418 169.535ZM172.915 166.137L170.186 162.438L170.231 162.373L174.662 163.597L172.915 166.137Z" fill="#04CEA7"/>
<path d="M179.238 148.888C177.127 148.25 175.237 149.229 174.297 151.165C173.146 153.536 174.073 156.146 177.002 157.568C179.932 158.991 182.552 158.113 183.707 155.733C184.684 153.721 184.137 151.637 182.471 150.458L181.789 151.851C182.846 152.657 183.012 153.954 182.45 155.112C181.688 156.682 179.91 157.283 177.669 156.195C175.446 155.116 174.798 153.343 175.565 151.764C176.131 150.597 177.264 149.937 178.56 150.284L179.238 148.888Z" fill="#04CEA7"/>
<path d="M178.519 144.956L179.46 141.927L187.92 144.558L188.375 143.096L179.915 140.465L180.859 137.431L179.596 137.039L177.256 144.563L178.519 144.956Z" fill="#04CEA7"/>
<path d="M181.791 120.106L188.35 120.524C189.729 120.612 190.661 121.628 190.562 123.176C190.463 124.719 189.41 125.614 188.031 125.525L181.472 125.107L181.374 126.64L188.057 127.067C190.19 127.203 191.806 125.702 191.961 123.266C192.117 120.829 190.706 119.13 188.572 118.994L181.889 118.568L181.791 120.106Z" fill="#04CEA7"/>
<path d="M183.886 108.894L183.758 107.418C182.137 107.604 181.083 109.143 181.262 111.203C181.439 113.239 182.739 114.698 184.487 114.546C185.899 114.423 186.638 113.341 186.937 111.673L187.16 110.446C187.353 109.336 187.637 108.468 188.538 108.39C189.529 108.304 190.265 109.193 190.378 110.496C190.48 111.674 190.04 112.701 188.944 112.886L189.077 114.421C190.906 114.162 191.917 112.642 191.719 110.369C191.512 107.987 190.14 106.724 188.421 106.873C186.593 107.032 186.027 108.723 185.822 110.038L185.65 111.051C185.516 111.861 185.236 112.949 184.265 113.028C183.403 113.103 182.696 112.371 182.588 111.123C182.486 109.959 182.959 109.084 183.886 108.894Z" fill="#04CEA7"/>
<path d="M176.27 81.5555C174.414 82.7461 173.93 84.8182 174.792 86.7909C175.846 89.2056 178.433 90.1969 181.417 88.8934C184.402 87.59 185.436 85.0277 184.377 82.6039C183.482 80.5538 181.542 79.616 179.564 80.1167L180.18 81.5402C181.479 81.2603 182.573 81.976 183.089 83.156C183.787 84.7551 183.089 86.4978 180.806 87.4948C178.542 88.4838 176.773 87.8243 176.071 86.2161C175.551 85.027 175.785 83.7367 176.891 82.977L176.27 81.5555Z" fill="#04CEA7"/>
<path d="M170.997 69.6486C168.251 71.3979 167.633 74.1019 169.048 76.3244C170.469 78.5552 173.178 79.1346 175.925 77.3853C178.667 75.6386 179.292 72.9361 177.871 70.7052C176.456 68.4828 173.744 67.8992 170.997 69.6486ZM171.814 70.9317C173.907 69.599 175.748 69.9823 176.688 71.4584C177.631 72.9386 177.197 74.7652 175.105 76.0979C173.012 77.4306 171.173 77.0515 170.231 75.5712C169.291 74.0952 169.722 72.2644 171.814 70.9317Z" fill="#04CEA7"/>
<path d="M159.248 63.8194L160.254 64.9607L165.864 60.0169L165.926 60.0878L163.742 68.9181L164.682 69.9848L172.321 63.2528L171.305 62.1003L165.703 67.0375L165.64 66.9667L167.82 58.1467L166.887 57.0874L159.248 63.8194Z" fill="#04CEA7"/>
<path d="M157.67 60.5956L155.239 58.5571L160.933 51.7696L159.76 50.7855L154.066 57.573L151.632 55.5314L150.782 56.5445L156.82 61.6088L157.67 60.5956Z" fill="#04CEA7"/>
<path d="M152.207 45.2682L149.998 47.0715L146.612 44.9845L147.235 42.2029L145.846 41.3472L143.623 51.9373L145.134 52.8686L153.595 46.1239L152.207 45.2682ZM148.939 47.9371L145.38 50.8482L145.313 50.8064L146.315 46.3197L148.939 47.9371Z" fill="#04CEA7"/>
<path d="M131.396 42.4844C130.864 44.6246 131.935 46.463 133.916 47.3052C136.341 48.3361 138.902 47.2802 140.176 44.2834C141.45 41.2866 140.443 38.7136 138.009 37.6788C135.95 36.8035 133.896 37.4538 132.802 39.1765L134.227 39.7879C134.979 38.6923 136.266 38.4614 137.451 38.9651C139.057 39.6478 139.746 41.394 138.772 43.6863C137.805 45.9602 136.066 46.6958 134.451 46.0092C133.257 45.5015 132.541 44.403 132.823 43.0913L131.396 42.4844Z" fill="#04CEA7"/>
<path d="M127.504 43.3987L124.432 42.6092L126.637 34.0287L125.154 33.6475L122.949 42.2281L119.872 41.4374L119.543 42.7182L127.175 44.6795L127.504 43.3987Z" fill="#04CEA7"/>
<path d="M102.521 41.3715L102.612 34.7997C102.631 33.4178 103.599 32.4367 105.15 32.458C106.696 32.4793 107.642 33.4868 107.623 34.8687L107.532 41.4405L109.068 41.4617L109.16 34.7656C109.19 32.628 107.61 31.0898 105.169 31.0562C102.728 31.0226 101.102 32.5166 101.072 34.6542L100.98 41.3503L102.521 41.3715Z" fill="#04CEA7"/>
<path d="M91.2189 39.8392L89.7512 40.041C90.0177 41.6504 91.6072 42.6262 93.6561 42.3444C95.6804 42.0661 97.0726 40.6953 96.8336 38.9567C96.6405 37.553 95.5227 36.8686 93.842 36.6531L92.6054 36.492C91.4875 36.3546 90.6063 36.1145 90.4831 35.2181C90.3476 34.233 91.1989 33.4535 92.4942 33.2754C93.6665 33.1142 94.7134 33.5022 94.9531 34.5883L96.48 34.3784C96.1302 32.5646 94.5615 31.6311 92.3008 31.942C89.9318 32.2678 88.7389 33.7015 88.9739 35.4106C89.2238 37.228 90.9411 37.7095 92.265 37.8486L93.2853 37.9692C94.1011 38.0628 95.2009 38.2879 95.3288 39.2539C95.4466 40.1109 94.7509 40.854 93.5097 41.0247C92.3523 41.1838 91.4553 40.7552 91.2189 39.8392Z" fill="#04CEA7"/>
<path d="M64.2949 48.8107C65.5767 50.6052 67.6704 50.9848 69.5976 50.0257C71.9566 48.8517 72.8175 46.2186 71.3666 43.3033C69.9158 40.388 67.305 39.4827 64.9371 40.6611C62.9342 41.6578 62.0945 43.6417 62.6934 45.5928L64.0843 44.9061C63.7399 43.6226 64.4001 42.4943 65.5529 41.9206C67.1151 41.1432 68.8905 41.7534 70.0002 43.9833C71.1011 46.1954 70.5308 47.9953 68.9596 48.7772C67.7979 49.3553 66.4976 49.1861 65.6836 48.1196L64.2949 48.8107Z" fill="#04CEA7"/>
<path d="M52.666 54.6715C54.5503 57.3274 57.2819 57.8094 59.4309 56.2847C61.588 54.7543 62.0313 52.0197 60.147 49.3639C58.2656 46.7121 55.5352 46.2231 53.3781 47.7536C51.2291 49.2782 50.7817 52.0157 52.666 54.6715ZM53.9068 53.7912C52.4713 51.7679 52.7621 49.9096 54.1894 48.897C55.6207 47.8815 57.4667 48.2237 58.9022 50.247C60.3377 52.2704 60.0509 54.1258 58.6196 55.1413C57.1923 56.1539 55.3423 55.8145 53.9068 53.7912Z" fill="#04CEA7"/>
<path d="M47.431 66.697L48.5206 65.6354L43.3029 60.2797L43.3705 60.2137L52.2989 61.9545L53.3173 60.9623L46.2123 53.6694L45.1119 54.7414L50.3228 60.09L50.2551 60.1559L41.3372 58.4188L40.3259 59.404L47.431 66.697Z" fill="#04CEA7"/>
<path d="M44.2901 68.4347L42.3755 70.9635L35.3121 65.6159L34.3879 66.8368L41.4513 72.1844L39.5337 74.7172L40.588 75.5154L45.3445 69.2329L44.2901 68.4347Z" fill="#04CEA7"/>
<path d="M29.2546 74.6555L31.166 76.7723L29.2507 80.258L26.4414 79.7752L25.6562 81.2043L36.3441 82.8963L37.1988 81.3408L30.0399 73.2264L29.2546 74.6555ZM32.0834 77.7869L35.1685 81.1953L35.1302 81.265L30.5991 80.4883L32.0834 77.7869Z" fill="#04CEA7"/>
<path d="M27.5135 95.5804C29.6775 96.0045 31.4602 94.8426 32.2024 92.822C33.1109 90.3486 31.9285 87.8434 28.8717 86.7206C25.815 85.5978 23.2955 86.7327 22.3836 89.2154C21.6122 91.3154 22.3643 93.3342 24.1395 94.3411L24.679 92.8868C23.5471 92.1903 23.2522 90.9168 23.6962 89.7081C24.2979 88.0701 26.0075 87.2945 28.3455 88.1533C30.6649 89.0052 31.4863 90.7052 30.8813 92.3526C30.4339 93.5706 29.3725 94.3406 28.0483 94.1244L27.5135 95.5804Z" fill="#04CEA7"/>
<path d="M28.621 99.4214L27.986 102.529L19.306 100.755L18.9994 102.255L27.6794 104.029L27.0433 107.142L28.339 107.407L29.9167 99.6862L28.621 99.4214Z" fill="#04CEA7"/>
</svg>
