<svg width="36" height="36" viewBox="0 0 36 36" fill="none" xmlns="http://www.w3.org/2000/svg">
<circle cx="18.238" cy="18.4988" r="17.0012" stroke="black"/>
<g clip-path="url(#clip0)">
<path d="M15.0519 23.5537V16.2065H12.5509V23.5537H15.0519ZM13.8017 15.2027C14.6739 15.2027 15.2168 14.6386 15.2168 13.9335C15.2005 13.2126 14.6739 12.6641 13.8183 12.6641C12.9628 12.6641 12.4033 13.2126 12.4033 13.9335C12.4033 14.6386 12.9461 15.2027 13.7854 15.2027H13.8017H13.8017ZM16.4363 23.5537H18.9373V19.4507C18.9373 19.2311 18.9536 19.0117 19.0196 18.8547C19.2004 18.416 19.6119 17.9616 20.3028 17.9616C21.2079 17.9616 21.5699 18.6354 21.5699 19.6231V23.5537H24.0708V19.3408C24.0708 17.0841 22.8369 16.034 21.1914 16.034C19.8422 16.034 19.2498 16.7704 18.9207 17.2719H18.9374V16.2063H16.4363C16.4691 16.8958 16.4363 23.5536 16.4363 23.5536L16.4363 23.5537Z" fill="black"/>
</g>
<defs>
<clipPath id="clip0">
<rect width="11.6675" height="10.8896" fill="white" transform="translate(12.4043 12.6646)"/>
</clipPath>
</defs>
</svg>
