<svg width="42" height="41" viewBox="0 0 42 41" fill="none" xmlns="http://www.w3.org/2000/svg">
<path d="M41.0564 13.339C41.0564 11.7145 39.7346 10.3927 38.1101 10.3927C37.3235 10.3927 36.583 10.6993 36.027 11.2559L34.1018 13.1812L31.9628 15.3201V9.04163C34.1628 8.72466 35.8601 6.83254 35.8601 4.5468C35.8601 2.03956 33.8205 0 31.3133 0H5.33159C2.82435 0 0.78479 2.03956 0.78479 4.5468V37.0239C0.78479 37.3825 1.07579 37.6735 1.43433 37.6735H4.68205V39.6221C4.68205 39.9806 4.97304 40.2716 5.33159 40.2716H31.3133C31.6718 40.2716 31.9628 39.9806 31.9628 39.6221V23.6524L38.2679 17.3473L38.935 16.6803C38.5986 18.3561 37.7782 19.8968 36.5428 21.1329L33.4529 24.2227L34.3713 25.1412L37.4612 22.0513C39.3046 20.2079 40.3354 17.7734 40.3958 15.1759C40.8161 14.655 41.0564 14.0184 41.0564 13.339ZM36.9455 12.1744C37.2566 11.8632 37.6704 11.6918 38.1101 11.6918C39.0182 11.6918 39.7573 12.4309 39.7573 13.339C39.7573 13.7787 39.5859 14.1925 39.2747 14.5036L37.8087 15.9697L35.4795 13.6404L36.9455 12.1744ZM34.561 14.5588L35.2664 15.2642L27.0913 23.4394L26.3859 22.734L34.561 14.5588ZM19.1129 31.6996L20.449 29.0268L22.4224 31.0001L19.7495 32.3362L19.1129 31.6996ZM21.1895 27.9303L25.4674 23.6524L27.7967 25.9817L23.5188 30.2596L21.1895 27.9303ZM31.3133 1.29909C33.1041 1.29909 34.561 2.75601 34.561 4.5468C34.561 6.33759 33.1041 7.79451 31.3133 7.79451H8.50785C9.35226 6.96829 9.87839 5.8186 9.87839 4.5468C9.87839 3.27499 9.35226 2.1253 8.50785 1.29909H31.3133ZM5.98113 7.72891V5.84588C5.98113 5.48799 6.27278 5.19634 6.63067 5.19634H8.5137C8.25453 6.46685 7.25164 7.46974 5.98113 7.72891ZM2.08388 36.3744V4.5468C2.08388 2.75601 3.5408 1.29909 5.33159 1.29909C6.89958 1.29909 8.21166 2.41695 8.5137 3.89726H6.63067C5.55633 3.89726 4.68205 4.77154 4.68205 5.84588V36.3744H2.08388ZM30.6637 38.9726H5.98113V9.0936H30.6637V16.6192L27.7967 19.4863H8.5793V20.7854H26.4976L25.1985 22.0844H8.5793V23.3835H23.8994L19.8118 27.4711C19.7612 27.5218 19.7281 27.5822 19.6975 27.6432L19.6904 27.6393L17.7417 31.5366C17.617 31.7867 17.6658 32.0887 17.8639 32.2862L18.0535 32.4771L16.5641 33.9665L17.4826 34.885L18.972 33.3956L19.1623 33.5859C19.287 33.7106 19.4533 33.7762 19.6215 33.7762C19.7196 33.7762 19.8196 33.7535 19.9119 33.708L23.8091 31.7594L23.8052 31.7522C23.8663 31.7217 23.9267 31.6886 23.9774 31.6379L29.1737 26.4416L30.6637 24.9515V38.9726ZM28.7151 25.0632L28.0097 24.3578L36.1849 16.1827L36.8903 16.8881L28.7151 25.0632Z" fill="#04CEA7"/>
<path d="M8.57922 11.6919H28.0655V12.991H8.57922V11.6919Z" fill="#04CEA7"/>
<path d="M8.57922 14.29H28.0655V15.5891H8.57922V14.29Z" fill="#04CEA7"/>
<path d="M8.57922 16.8882H28.0655V18.1873H8.57922V16.8882Z" fill="#04CEA7"/>
<path d="M8.57922 32.4771H15.7242V33.7761H8.57922V32.4771Z" fill="#04CEA7"/>
<path d="M8.57922 35.0754H28.0655V36.3745H8.57922V35.0754Z" fill="#04CEA7"/>
</svg>
