<svg width="40" height="40" viewBox="0 0 40 40" fill="none" xmlns="http://www.w3.org/2000/svg">
<g clip-path="url(#clip0)">
<path d="M16.3577 2.62354C8.77598 2.62354 2.62976 8.76975 2.62976 16.3515C2.62976 23.9333 8.77598 30.0795 16.3577 30.0795C23.9395 30.0795 30.0857 23.9333 30.0857 16.3515C30.0775 8.77318 23.9361 2.63179 16.3577 2.62354ZM16.3577 3.93096C20.3957 3.93415 24.1797 5.90215 26.5008 9.20643L24.8665 10.8407C24.4688 10.6001 24.0135 10.4713 23.5486 10.4681C22.1045 10.4681 20.9337 11.6388 20.9337 13.0829C20.936 13.5483 21.0641 14.0044 21.3044 14.4028L17.0239 18.6833C16.2134 18.1891 15.1947 18.1891 14.3842 18.6833L11.4111 15.7102C11.6514 15.3118 11.7795 14.8557 11.7818 14.3904C11.7835 12.9491 10.6167 11.7793 9.17539 11.7775C7.98343 11.776 6.94198 12.5823 6.64487 13.7367H4.21959C5.45732 8.021 10.5096 3.93954 16.3577 3.93096ZM24.856 13.0829C24.856 13.8051 24.2707 14.3904 23.5486 14.3904C22.8265 14.3904 22.2412 13.8051 22.2412 13.0829C22.2412 12.3608 22.8265 11.7755 23.5486 11.7755C24.2707 11.7755 24.856 12.3608 24.856 13.0829ZM17.0115 20.9275C17.0115 21.6496 16.4261 22.2349 15.704 22.2349C14.9819 22.2349 14.3966 21.6496 14.3966 20.9275C14.3966 20.2054 14.9819 19.6201 15.704 19.6201C16.4261 19.6201 17.0115 20.2054 17.0115 20.9275ZM10.4743 14.3904C10.4743 15.1125 9.889 15.6978 9.1669 15.6978C8.44479 15.6978 7.85947 15.1125 7.85947 14.3904C7.85947 13.6683 8.44479 13.0829 9.1669 13.0829C9.889 13.0829 10.4743 13.6683 10.4743 14.3904ZM22.3927 27.2118C20.5466 28.2368 18.4694 28.7739 16.3577 28.772C9.50274 28.7766 3.94185 23.2234 3.93719 16.3684C3.93686 15.926 3.96023 15.4839 4.00714 15.044H6.64487C6.94206 16.1949 7.9782 17.0007 9.1669 17.0051C9.63226 17.0029 10.0883 16.8748 10.4867 16.6345L13.4598 19.6076C13.2195 20.006 13.0915 20.4621 13.0892 20.9274C13.0892 22.3716 14.2599 23.5423 15.704 23.5423C17.1482 23.5423 18.3189 22.3716 18.3189 20.9274C18.3166 20.4621 18.1885 20.006 17.9482 19.6076L22.2287 15.3271C22.6272 15.5674 23.0832 15.6954 23.5486 15.6977C24.9927 15.6977 26.1634 14.527 26.1634 13.0829C26.1612 12.6175 26.0331 12.1615 25.7928 11.763L27.2179 10.3386C30.5449 16.3305 28.3845 23.8849 22.3927 27.2118Z" fill="#04CEA7"/>
<path d="M32.7005 6.54705C33.8892 6.54255 34.9254 5.73693 35.2225 4.58591H39.2377V3.27848H35.2225C34.9254 2.12745 33.8892 1.32183 32.7005 1.31734C31.2564 1.31734 30.0857 2.48806 30.0857 3.93219C30.088 4.39755 30.216 4.8536 30.4563 5.25204L29.3077 6.40061C23.8121 -0.759264 13.5527 -2.10836 6.3928 3.38732C-0.767076 8.88301 -2.11618 19.1425 3.37951 26.3023C8.56705 33.0607 18.0762 34.7001 25.2273 30.069L27.2002 32.0419L28.1245 32.9662L33.3869 38.2286C34.7253 39.567 36.8952 39.567 38.2335 38.2286C39.5719 36.8902 39.5719 34.7204 38.2335 33.382L32.9712 28.1196L32.0468 27.1952L30.0739 25.2223C33.5761 19.8279 33.5761 12.8777 30.0739 7.48316L31.3813 6.17574C31.7795 6.41614 32.2354 6.54443 32.7005 6.54705ZM32.7005 2.62477C33.4226 2.62477 34.0079 3.21008 34.0079 3.93219C34.0079 4.6543 33.4226 5.23962 32.7005 5.23962C31.9784 5.23962 31.3931 4.6543 31.3931 3.93219C31.3931 3.21008 31.9785 2.62477 32.7005 2.62477ZM37.3092 34.3063C38.1464 35.1248 38.1617 36.467 37.3433 37.3043C36.5248 38.1415 35.1826 38.1568 34.3453 37.3383C34.3338 37.3271 34.3225 37.3158 34.3113 37.3043L29.0489 32.0419L32.0468 29.0439L37.3092 34.3063ZM31.1225 28.1196L28.1245 31.1175L26.315 29.308C26.4072 29.2374 26.4935 29.1596 26.5844 29.0871C26.6752 29.0145 26.7805 28.9276 26.8779 28.8459C27.0211 28.7256 27.1623 28.604 27.3008 28.4791C27.3721 28.4138 27.4401 28.3484 27.51 28.283C27.7781 28.032 28.0376 27.7725 28.2886 27.5044C28.354 27.4345 28.4193 27.3665 28.4847 27.2953C28.6096 27.1567 28.7312 27.0155 28.8515 26.8723C28.9334 26.7756 29.0138 26.6777 29.0927 26.5788C29.1646 26.4886 29.2424 26.4023 29.313 26.3101L31.1225 28.1196ZM28.5874 25.0831C28.3814 25.3707 28.169 25.6525 27.9448 25.9238C27.8794 26.0029 27.8094 26.0793 27.7421 26.1571C27.5421 26.3899 27.3355 26.6156 27.1224 26.8344C27.0296 26.9302 26.9352 27.0246 26.8393 27.1174C26.6214 27.3306 26.3957 27.5371 26.1621 27.7372C26.0843 27.8025 26.0078 27.8738 25.9287 27.9398C25.6574 28.164 25.3757 28.3765 25.088 28.5824C18.3208 33.417 8.91556 31.8503 4.08094 25.0831C-0.753675 18.3159 0.813031 8.91063 7.58027 4.07601C14.3475 -0.75861 23.7527 0.808014 28.5874 7.57534C32.3283 12.8117 32.3283 19.8467 28.5874 25.0831Z" fill="#04CEA7"/>
</g>
<defs>
<clipPath id="clip0">
<rect width="39.2377" height="39.2377" fill="white"/>
</clipPath>
</defs>
</svg>
