<svg width="40" height="40" viewBox="0 0 40 40" fill="none" xmlns="http://www.w3.org/2000/svg">
<path d="M37.3187 20.2408C37.6678 20.2408 37.9512 19.9574 37.9512 19.6083V17.7107H38.5837C38.9328 17.7107 39.2162 17.4273 39.2162 17.0782V14.5481C39.2162 14.199 38.9328 13.9156 38.5837 13.9156H33.5235V6.88007L35.1858 7.54485L35.6558 6.37026L19.8428 0.045067C19.6916 -0.0150223 19.524 -0.0150223 19.3728 0.045067L3.55982 6.37026L4.02978 7.54485L5.69268 6.88007V13.9156H0.63252C0.283369 13.9156 0 14.199 0 14.5481V17.0782C0 17.4273 0.283369 17.7107 0.63252 17.7107H1.26504V19.6083C1.26504 19.9574 1.54841 20.2408 1.89756 20.2408H2.53008V32.8912H1.89756C1.54841 32.8912 1.26504 33.1746 1.26504 33.5237V35.4213H0.63252C0.283369 35.4213 0 35.7046 0 36.0538V38.5839C0 38.933 0.283369 39.2164 0.63252 39.2164H38.5837C38.9328 39.2164 39.2162 38.933 39.2162 38.5839V36.0538C39.2162 35.7046 38.9328 35.4213 38.5837 35.4213H37.9512V33.5237C37.9512 33.1746 37.6678 32.8912 37.3187 32.8912H36.6861V20.2408H37.3187ZM36.6861 18.9757H31.626V17.7107H36.6861V18.9757ZM30.9935 32.8912C30.6443 32.8912 30.3609 33.1746 30.3609 33.5237V35.4213H29.0959V33.5237C29.0959 33.1746 28.8125 32.8912 28.4634 32.8912H27.8309V20.2408H28.4634C28.8125 20.2408 29.0959 19.9574 29.0959 19.6083V17.7107H30.3609V19.6083C30.3609 19.9574 30.6443 20.2408 30.9935 20.2408H31.626V32.8912H30.9935ZM8.22276 32.8912H7.59024V20.2408H8.22276C8.57191 20.2408 8.85528 19.9574 8.85528 19.6083V17.7107H10.1203V19.6083C10.1203 19.9574 10.4037 20.2408 10.7528 20.2408H11.3854V32.8912H10.7528C10.4037 32.8912 10.1203 33.1746 10.1203 33.5237V35.4213H8.85528V33.5237C8.85528 33.1746 8.57191 32.8912 8.22276 32.8912ZM12.6504 32.8912V20.2408H15.1805V32.8912H12.6504ZM11.3854 18.9757V17.7107H16.4455V18.9757H11.3854ZM11.3854 34.1562H16.4455V35.4213H11.3854V34.1562ZM17.078 32.8912H16.4455V20.2408H17.078C17.4272 20.2408 17.7106 19.9574 17.7106 19.6083V17.7107H21.5057V19.6083C21.5057 19.9574 21.789 20.2408 22.1382 20.2408H22.7707V32.8912H22.1382C21.789 32.8912 21.5057 33.1746 21.5057 33.5237V35.4213H17.7106V33.5237C17.7106 33.1746 17.4272 32.8912 17.078 32.8912ZM24.0357 32.8912V20.2408H26.5658V32.8912H24.0357ZM22.7707 18.9757V17.7107H27.8309V18.9757H22.7707ZM22.7707 34.1562H27.8309V35.4213H22.7707V34.1562ZM6.95772 6.37406L19.6081 1.3139L32.2585 6.37406V13.9156H19.6081H6.95772V6.37406ZM1.26504 15.1806H37.9512V16.4457H1.26504V15.1806ZM7.59024 17.7107V18.9757H2.53008V17.7107H7.59024ZM3.79512 20.2408H6.3252V32.8912H3.79512V20.2408ZM2.53008 34.1562H7.59024V35.4213H2.53008V34.1562ZM37.9512 37.9513H1.26504V36.6863H37.9512V37.9513ZM31.626 35.4213V34.1562H36.6861V35.4213H31.626ZM35.4211 32.8912H32.891V20.2408H35.4211V32.8912Z" fill="#04CEA7"/>
<path d="M20.2408 5.0603H18.9757V6.32534H18.3432C18.0877 6.32534 17.8568 6.47968 17.7588 6.71561C17.6607 6.95217 17.7151 7.22415 17.896 7.40505L19.3464 8.85542H17.7107V10.1205H18.9757V11.3855H20.2408V10.1205H20.8733C21.1288 10.1205 21.3597 9.96613 21.4577 9.7302C21.5558 9.49363 21.5014 9.22165 21.3205 9.04075L19.8701 7.59038H21.5058V6.32534H20.2408V5.0603Z" fill="#04CEA7"/>
<path d="M25.3009 8.22295C25.3009 5.08439 22.7468 2.53027 19.6082 2.53027C16.4696 2.53027 13.9155 5.08439 13.9155 8.22295C13.9155 11.3615 16.4696 13.9156 19.6082 13.9156C22.7468 13.9156 25.3009 11.3615 25.3009 8.22295ZM19.6082 12.6506C17.1667 12.6506 15.1806 10.6645 15.1806 8.22295C15.1806 5.78142 17.1667 3.79531 19.6082 3.79531C22.0497 3.79531 24.0358 5.78142 24.0358 8.22295C24.0358 10.6645 22.0497 12.6506 19.6082 12.6506Z" fill="#04CEA7"/>
</svg>
