<svg width="22" height="21" viewBox="0 0 22 21" fill="none" xmlns="http://www.w3.org/2000/svg">
<path d="M17.3869 13.0087C16.9365 12.561 16.3933 12.3217 15.8175 12.3217C15.2464 12.3217 14.6985 12.5566 14.2295 13.0042L12.7622 14.4004C12.6415 14.3383 12.5208 14.2807 12.4047 14.2231C12.2376 14.1433 12.0797 14.068 11.945 13.9882C10.5706 13.1549 9.3216 12.069 8.12364 10.664C7.54323 9.96375 7.1532 9.37427 6.86996 8.77592C7.25071 8.44351 7.6036 8.0978 7.9472 7.76538C8.07721 7.64128 8.20722 7.51275 8.33723 7.38865C9.31231 6.45788 9.31231 5.25233 8.33723 4.32157L7.06962 3.11158C6.92568 2.97418 6.7771 2.83235 6.6378 2.69052C6.35921 2.41572 6.06668 2.13206 5.76487 1.86613C5.31447 1.44064 4.77586 1.2146 4.20938 1.2146C3.6429 1.2146 3.095 1.44064 2.63067 1.86613C2.62603 1.87056 2.62603 1.87056 2.62139 1.875L1.04268 3.39524C0.448347 3.96256 0.10939 4.65398 0.0350975 5.45621C-0.0763405 6.75041 0.322979 7.95597 0.629434 8.7449C1.38164 10.6818 2.50531 12.4768 4.18152 14.4004C6.21526 16.7184 8.66226 18.5489 11.4575 19.8387C12.5254 20.3218 13.9509 20.8935 15.5436 20.991C15.6411 20.9955 15.7432 20.9999 15.8361 20.9999C16.9087 20.9999 17.8095 20.632 18.5152 19.9007C18.5199 19.8919 18.5292 19.8874 18.5338 19.8786C18.7753 19.5993 19.0539 19.3467 19.3464 19.0763C19.546 18.8946 19.7503 18.704 19.95 18.5046C20.4097 18.0481 20.6511 17.5162 20.6511 16.971C20.6511 16.4215 20.405 15.894 19.9361 15.4508L17.3869 13.0087ZM19.0492 17.6758C19.0446 17.6758 19.0446 17.6802 19.0492 17.6758C18.8681 17.8619 18.6824 18.0303 18.4827 18.2165C18.1809 18.4913 17.8745 18.7794 17.5866 19.1029C17.1176 19.5816 16.5651 19.8077 15.8407 19.8077C15.7711 19.8077 15.6968 19.8077 15.6271 19.8032C14.2481 19.719 12.9666 19.2049 12.0054 18.7661C9.37732 17.5517 7.06962 15.8275 5.15196 13.6425C3.56861 11.8208 2.50995 10.1366 1.80882 8.32827C1.377 7.22465 1.21913 6.36481 1.28878 5.55372C1.33521 5.03515 1.54415 4.60523 1.92954 4.23736L3.51289 2.72598C3.74041 2.5221 3.98186 2.41129 4.21867 2.41129C4.51119 2.41129 4.748 2.57972 4.89658 2.72155C4.90122 2.72598 4.90587 2.73041 4.91051 2.73484C5.19375 2.98748 5.46306 3.24898 5.7463 3.52821C5.89024 3.67004 6.03882 3.81187 6.18741 3.95813L7.45501 5.16812C7.9472 5.63793 7.9472 6.07228 7.45501 6.5421C7.32036 6.67063 7.19035 6.79916 7.05569 6.92326C6.66566 7.30443 6.2942 7.65901 5.89024 8.00472C5.88095 8.01359 5.87166 8.01802 5.86702 8.02688C5.4677 8.40805 5.54199 8.78035 5.62557 9.03299C5.63022 9.04629 5.63486 9.05958 5.6395 9.07288C5.96917 9.83522 6.4335 10.5532 7.13927 11.4086L7.14392 11.4131C8.42545 12.92 9.77664 14.0946 11.2671 14.9943C11.4575 15.1095 11.6525 15.2026 11.8382 15.2912C12.0054 15.371 12.1633 15.4464 12.2979 15.5262C12.3165 15.535 12.3351 15.5483 12.3536 15.5572C12.5115 15.6325 12.6601 15.668 12.8133 15.668C13.1987 15.668 13.4402 15.4375 13.5191 15.3622L15.1071 13.8464C15.265 13.6957 15.5157 13.5139 15.8082 13.5139C16.0961 13.5139 16.3329 13.6868 16.4768 13.8375C16.4815 13.8419 16.4815 13.8419 16.4861 13.8464L19.0446 16.2885C19.5228 16.7406 19.5228 17.206 19.0492 17.6758Z" fill="black"/>
<path d="M11.8893 4.99532C13.1059 5.19034 14.2109 5.73993 15.0932 6.58205C15.9754 7.42417 16.5465 8.47903 16.7554 9.64026C16.8065 9.93279 17.0712 10.1367 17.373 10.1367C17.4101 10.1367 17.4427 10.1322 17.4798 10.1278C17.8234 10.0746 18.0509 9.76436 17.9952 9.43638C17.7445 8.03138 17.048 6.75047 15.9847 5.7355C14.9214 4.72053 13.5795 4.0557 12.1076 3.81636C11.764 3.76317 11.4436 3.98035 11.3832 4.3039C11.3228 4.62745 11.5457 4.94214 11.8893 4.99532Z" fill="black"/>
<path d="M21.9745 9.26354C21.5612 6.94994 20.419 4.84465 18.6638 3.16928C16.9087 1.49391 14.7031 0.403587 12.2794 0.00912211C11.9404 -0.0484964 11.62 0.173113 11.5597 0.496663C11.5039 0.824646 11.7315 1.13047 12.0751 1.18809C14.2388 1.53823 16.2122 2.51774 17.7816 4.01139C19.351 5.50947 20.3725 7.39316 20.7394 9.45856C20.7904 9.75108 21.0551 9.95497 21.3569 9.95497C21.3941 9.95497 21.4266 9.95053 21.4637 9.9461C21.8027 9.89735 22.0348 9.58709 21.9745 9.26354Z" fill="black"/>
</svg>
