<svg width="36" height="36" viewBox="0 0 36 36" fill="none" xmlns="http://www.w3.org/2000/svg">
<circle cx="18.3358" cy="18.4988" r="17.0012" stroke="black"/>
<path d="M24.3397 14.7795C23.898 14.97 23.4174 15.1072 22.9224 15.1606C23.4364 14.8552 23.8212 14.3728 24.0048 13.8039C23.5226 14.0908 22.9942 14.292 22.4432 14.3985C22.213 14.1523 21.9345 13.9562 21.6251 13.8224C21.3157 13.6886 20.9821 13.6199 20.645 13.6206C19.2811 13.6206 18.1842 14.7261 18.1842 16.0828C18.1842 16.2733 18.2073 16.4638 18.2449 16.6471C16.2027 16.5403 14.3813 15.5647 13.1704 14.0709C12.9498 14.4478 12.8342 14.8768 12.8356 15.3135C12.8356 16.1679 13.27 16.9213 13.9324 17.3644C13.5421 17.349 13.1608 17.2417 12.8197 17.0512V17.0815C12.8197 18.278 13.6654 19.2695 14.7926 19.4975C14.581 19.5525 14.3633 19.5806 14.1446 19.5812C13.9844 19.5812 13.8329 19.5653 13.6799 19.5437C13.9916 20.5193 14.8994 21.2279 15.9804 21.251C15.1347 21.9135 14.0753 22.3032 12.9251 22.3032C12.7187 22.3032 12.5282 22.2959 12.3304 22.2729C13.4215 22.9728 14.7161 23.3769 16.1103 23.3769C20.6363 23.3769 23.1129 19.6274 23.1129 16.3729C23.1129 16.2661 23.1129 16.1593 23.1057 16.0525C23.5849 15.7018 24.0048 15.2674 24.3397 14.7795Z" fill="black"/>
</svg>
